<svg width="99" height="43" viewBox="0 0 99 43" fill="none" xmlns="http://www.w3.org/2000/svg">
<path d="M14.0516 5.11402H13.6214V4.68387V0.430151H9.79787V4.68387V5.11402H9.36771C4.43884 5.11402 0.430124 9.12274 0.430124 14.0516C0.430124 16.7165 1.6023 19.1164 3.46215 20.7546L3.82859 21.0774L3.46215 21.4002C1.6023 23.0385 0.430124 25.4384 0.430124 28.1032C0.430124 33.0321 4.43884 37.0408 9.36771 37.0408H9.79787V37.471V41.7247H13.6214V37.471V37.0408H14.0516H20.6472V5.11402H14.0516Z" stroke="#061C5B" stroke-width="0.860303"/>
<path d="M26.5763 9.83765V18.8077H38.1529V22.8969H26.5763V32.2627H39.6V36.3519L21.0774 36.4064V5.74838H39.6V9.83765H26.5763Z" fill="#061C5B"/>
<path d="M66.4258 36.4064H61.5801L47.0005 13.545V36.3504H42.1548V5.74838H47.0005L61.5801 28.5657V5.74838H66.4258V36.4064Z" fill="#061C5B"/>
<path d="M70.8919 37.6839C70.3508 37.6839 69.897 37.5058 69.5305 37.1496C69.164 36.7935 68.9807 36.3525 68.9807 35.8268C68.9807 35.301 69.164 34.8601 69.5305 34.5039C69.897 34.1478 70.3508 33.9697 70.8919 33.9697C71.4155 33.9697 71.8606 34.1478 72.2271 34.5039C72.5936 34.8601 72.7769 35.301 72.7769 35.8268C72.7769 36.3525 72.5936 36.7935 72.2271 37.1496C71.8606 37.5058 71.4155 37.6839 70.8919 37.6839Z" fill="#153DA2"/>
<path d="M78.2018 22.1658V27.3555H84.4852V29.7213H78.2018V35.1399H85.2706V37.5058H75.2172V19.8H85.2706V22.1658H78.2018Z" fill="#153DA2"/>
<path d="M94.3399 30.4082L99.0001 37.5058H95.6228L92.5073 32.7486L89.575 37.5058H86.4595L91.1197 30.6117L86.4595 23.4887H89.8368L92.9523 28.2459L95.8846 23.4887H99.0001L94.3399 30.4082Z" fill="#153DA2"/>
</svg>
