<svg width="16" height="16" viewBox="0 0 16 16" fill="none" xmlns="http://www.w3.org/2000/svg">
<path d="M1.90535 3.81069C2.95764 3.81069 3.81069 2.95764 3.81069 1.90535C3.81069 0.853052 2.95764 0 1.90535 0C0.853052 0 0 0.853052 0 1.90535C0 2.95764 0.853052 3.81069 1.90535 3.81069Z" fill="#061C5B"/>
<path d="M5.60978 5.25441V15.8252H8.89189V10.5977C8.89189 9.21836 9.15139 7.88253 10.8617 7.88253C12.5484 7.88253 12.5693 9.45958 12.5693 10.6848V15.8261H15.8532V10.0291C15.8532 7.18152 15.2401 4.99316 11.9119 4.99316C10.3139 4.99316 9.24283 5.87008 8.80481 6.69996H8.76039V5.25441H5.60978ZM0.26123 5.25441H3.54856V15.8252H0.26123V5.25441Z" fill="#061C5B"/>
</svg>
