<svg width="99" height="43" viewBox="0 0 99 43" fill="none" xmlns="http://www.w3.org/2000/svg">
<path d="M14.0518 5.18387H13.5518V4.68387V0.5H9.86796V4.68387V5.18387H9.36796C4.47766 5.18387 0.500217 9.16132 0.500217 14.0516C0.500217 16.6956 1.66312 19.0766 3.50857 20.7022L3.9345 21.0774L3.50857 21.4526C1.66312 23.0782 0.500217 25.4593 0.500217 28.1032C0.500217 32.9935 4.47766 36.971 9.36796 36.971H9.86796V37.471V41.6548H13.5518V37.471V36.971H14.0518H20.5776V5.18387H14.0518Z" stroke="white"/>
<path d="M26.5765 9.83765V18.8077H38.1531V22.8969H26.5765V32.2627H39.6002V36.3519L21.0776 36.4064V5.74838H39.6002V9.83765H26.5765Z" fill="white"/>
<path d="M66.4258 36.4064H61.5801L47.0005 13.545V36.3504H42.1548V5.74838H47.0005L61.5801 28.5657V5.74838H66.4258V36.4064Z" fill="white"/>
<path d="M70.8917 37.6839C70.3506 37.6839 69.8968 37.5058 69.5303 37.1496C69.1637 36.7935 68.9805 36.3525 68.9805 35.8268C68.9805 35.301 69.1637 34.8601 69.5303 34.5039C69.8968 34.1478 70.3506 33.9697 70.8917 33.9697C71.4153 33.9697 71.8603 34.1478 72.2269 34.5039C72.5934 34.8601 72.7767 35.301 72.7767 35.8268C72.7767 36.3525 72.5934 36.7935 72.2269 37.1496C71.8603 37.5058 71.4153 37.6839 70.8917 37.6839Z" fill="white"/>
<path d="M78.2016 22.1658V27.3555H84.4849V29.7213H78.2016V35.1399H85.2703V37.5058H75.217V19.8H85.2703V22.1658H78.2016Z" fill="white"/>
<path d="M94.3397 30.4082L98.9998 37.5058H95.6225L92.507 32.7486L89.5748 37.5058H86.4593L91.1195 30.6117L86.4593 23.4887H89.8366L92.9521 28.2459L95.8843 23.4887H98.9998L94.3397 30.4082Z" fill="white"/>
</svg>
