<svg width="15" height="13" viewBox="0 0 15 13" fill="none" xmlns="http://www.w3.org/2000/svg">
<path d="M14.4429 6.93018H12.3953V4.96229H14.4429C14.7506 4.96229 15 4.71314 15 4.4054C15 4.09764 14.7506 3.84834 14.4429 3.84834H12.3953V1.11779C12.3953 0.719197 12.3166 0.42664 12.1613 0.248427C12.0137 0.0788898 11.8197 0 11.551 0C11.2947 0 11.108 0.0783457 10.9632 0.246825C10.8098 0.425219 10.7319 0.71832 10.7319 1.11797V3.84867H6.88025L5.24257 1.37051C5.10242 1.14934 4.97063 0.942174 4.84265 0.743317C4.72743 0.564228 4.61505 0.418418 4.5089 0.309544C4.41493 0.213154 4.30784 0.138556 4.18258 0.0812172C4.0644 0.0272638 3.91414 0.000181372 3.73638 0.000181372C3.50966 0.000181372 3.30385 0.0622957 3.10678 0.18991C2.91176 0.316133 2.77695 0.47219 2.69462 0.667027C2.62234 0.852191 2.58411 1.13592 2.58411 1.50217V3.84849H0.556853C0.249243 3.84852 0 4.09783 0 4.40556C0 4.71329 0.249243 4.96244 0.556883 4.96244H2.58414V6.93054H0.556883C0.249243 6.93054 0 7.17979 0 7.48761C0 7.79525 0.249243 8.04431 0.556883 8.04431H2.58414V11.1619C2.58414 11.5487 2.66542 11.8383 2.8264 12.0223C2.97949 12.1978 3.17361 12.2792 3.43721 12.2792C3.69153 12.2792 3.88413 12.1974 4.04384 12.0216C4.20739 11.8415 4.29012 11.5521 4.29012 11.1619V8.04431H7.77542L9.66149 10.9364C9.79264 11.1276 9.92805 11.3206 10.0631 11.5098C10.1849 11.6797 10.3179 11.8294 10.4581 11.9544C10.5844 12.0675 10.7199 12.1504 10.8606 12.201C11.0055 12.2532 11.1749 12.2796 11.3628 12.2796C11.8729 12.2796 12.3953 12.1235 12.3953 10.9654V8.04431H14.4429C14.7505 8.04431 14.9999 7.79488 14.9999 7.48724C15 7.1796 14.7506 6.93018 14.4429 6.93018ZM10.7319 4.96226V6.93015H8.91705L7.6167 4.96226H10.7319ZM4.29015 2.70108L5.03855 3.84834H4.29015V2.70108ZM4.29015 6.93018V4.96229H5.76524L7.04882 6.93018H4.29015ZM10.7319 9.6769L9.6533 8.04431H10.7319V9.6769Z" fill="white"/>
</svg>
