<svg width="18" height="22" viewBox="0 0 18 22" fill="none" xmlns="http://www.w3.org/2000/svg">
<g opacity="0.8">
<path fill-rule="evenodd" clip-rule="evenodd" d="M9.03824 0H8.96272C5.39539 0 2.12458 2.58836 1.80725 6.01513C1.78609 6.26027 1.77166 6.51077 1.76235 6.78061L1.74931 7.41149L1.74673 7.97713L1.76266 7.91265C1.61544 8.63052 1.27614 9.2964 0.77986 9.84048L0.708737 9.93197C0.283803 10.5775 0.0396453 11.3247 0.0018526 12.0962L0.000957114 12.3485C-0.0207372 13.3632 0.326985 14.3673 0.981137 15.1648C1.86823 16.1014 3.01655 16.6602 4.24902 16.7787C7.40117 17.1211 10.5903 17.1211 13.7513 16.7778C14.9753 16.6652 16.1271 16.1048 16.977 15.2028C17.6187 14.435 17.969 13.5137 17.999 12.5598L18 12.1328C17.9649 11.3273 17.7192 10.5794 17.2891 9.93671L17.2238 9.85284L17.0643 9.66517C16.7057 9.21732 16.4438 8.70144 16.2949 8.14964L16.2477 7.95152L16.2379 7.74373C16.235 7.65029 16.2335 7.54666 16.2331 7.41723L16.2329 6.70454C16.2305 6.43191 16.2224 6.23804 16.2036 6.0198C15.8754 2.58655 12.6036 0 9.03824 0ZM8.96245 1.47744H9.03798C11.8942 1.47744 14.4997 3.53728 14.7499 6.15523C14.7647 6.3271 14.7713 6.49107 14.7733 6.73466L14.7762 7.69251C14.7794 7.8457 14.7854 7.97309 14.7957 8.11644L14.8093 8.21456L14.878 8.50656C15.0816 9.27902 15.4473 9.99964 15.9506 10.6209L16.0966 10.7921L16.0805 10.7653C16.3597 11.1825 16.5187 11.6667 16.5409 12.166L16.5402 12.3391C16.5571 13.0338 16.3267 13.6938 15.891 14.2165C15.3151 14.8256 14.4919 15.2262 13.6071 15.3077C10.5379 15.6408 7.4531 15.6408 4.39563 15.3088C3.50108 15.2227 2.67731 14.8219 2.06835 14.1809C1.67359 13.6966 1.44576 13.0386 1.46006 12.3643L1.46023 12.1328L1.47872 11.9311C1.52327 11.5936 1.63603 11.2516 1.8108 10.9367L1.89943 10.79C2.54917 10.0592 2.99507 9.17062 3.19146 8.21296L3.20669 8.06281L3.2136 7.08946L3.2306 6.59563C3.23832 6.43986 3.24819 6.29184 3.26057 6.14837C3.50236 3.5374 6.10546 1.47744 8.96245 1.47744ZM1.89943 10.79C1.88371 10.8077 1.86788 10.8253 1.85193 10.8428L1.9041 10.7823L1.89943 10.79ZM11.7614 18.7312C11.4474 18.4755 10.988 18.5259 10.7354 18.8437C10.6259 18.9815 10.4991 19.1051 10.358 19.2115C9.87965 19.5868 9.28265 19.7538 8.68916 19.6831C8.09653 19.6125 7.55783 19.3109 7.19231 18.8465C6.94117 18.5274 6.48203 18.4748 6.16681 18.729C5.85158 18.9832 5.79963 19.448 6.05077 19.7671C6.65686 20.5372 7.54497 21.0345 8.51859 21.1504C9.49134 21.2663 10.4708 20.9922 11.2413 20.3877C11.47 20.2152 11.6858 20.0048 11.8726 19.7698C12.1252 19.452 12.0754 18.987 11.7614 18.7312Z" fill="white"/>
</g>
</svg>
