<svg width="15" height="15" viewBox="0 0 15 15" fill="none" xmlns="http://www.w3.org/2000/svg">
<path d="M14.2499 6.74998H8.25002V0.749952C8.25002 0.336043 7.91398 0 7.49993 0C7.08602 0 6.74998 0.336043 6.74998 0.749952V6.74998H0.749952C0.336043 6.74998 0 7.08602 0 7.49993C0 7.91398 0.336043 8.25002 0.749952 8.25002H6.74998V14.2499C6.74998 14.664 7.08602 15 7.49993 15C7.91398 15 8.25002 14.664 8.25002 14.2499V8.25002H14.2499C14.664 8.25002 15 7.91398 15 7.49993C15 7.08602 14.664 6.74998 14.2499 6.74998Z" fill="white"/>
</svg>
