<svg width="12" height="14" viewBox="0 0 12 14" fill="none" xmlns="http://www.w3.org/2000/svg">
<path fill-rule="evenodd" clip-rule="evenodd" d="M5.603 0C3.54918 0 1.88424 1.67205 1.88424 3.73462C1.88424 5.7972 3.54918 7.46924 5.603 7.46924C7.65682 7.46924 9.32177 5.7972 9.32177 3.73462C9.32177 1.67205 7.65682 0 5.603 0ZM5.603 1.01337C7.09952 1.01337 8.3127 2.23172 8.3127 3.73463C8.3127 5.23753 7.09952 6.45588 5.603 6.45588C4.10647 6.45588 2.8933 5.23753 2.8933 3.73463C2.8933 2.23172 4.10647 1.01337 5.603 1.01337ZM4.08103 8.97463C3.53663 9.01242 2.98635 9.09013 2.44356 9.20646C1.39592 9.42226 0.557797 9.85342 0.201067 10.5699C0.0665192 10.8501 -0.00112723 11.1502 1.42065e-05 11.4539C-0.00038944 11.7555 0.0667093 12.0559 0.196432 12.3307C0.53896 13.039 1.27946 13.4398 2.27937 13.662L2.45849 13.6993C2.98654 13.8185 3.53699 13.8987 4.09112 13.9363C4.13832 13.9502 4.2508 13.963 4.37357 13.9693L4.47455 13.9731C4.52648 13.9743 4.5854 13.9746 4.6732 13.9746C5.46969 14.0184 6.29539 14.0056 7.11726 13.9357C7.55524 13.9057 7.99617 13.8484 8.43341 13.7645L8.76055 13.6966C9.84029 13.4836 10.6488 13.0785 11.003 12.3315C11.2656 11.7769 11.2656 11.1333 11.0031 10.5789C10.6498 9.83379 9.85159 9.43208 8.75235 9.20563C8.32109 9.11356 7.88284 9.04544 7.44147 9.00193L7.11879 8.97463C6.10815 8.88547 5.09167 8.88547 4.08103 8.97463ZM7.03049 9.98409L7.03936 9.98479C7.54591 10.0204 8.04937 10.0915 8.54606 10.1976C9.36256 10.3658 9.91667 10.6446 10.092 11.0143C10.224 11.2931 10.224 11.617 10.0918 11.8961C9.92805 12.2415 9.4304 12.5084 8.71113 12.6715L8.55365 12.7048C8.04718 12.8178 7.54539 12.8907 7.04028 12.9253C6.25655 12.9919 5.47746 13.004 4.70033 12.9619L4.42481 12.9572C4.34832 12.9533 4.28386 12.9459 4.22412 12.9339C3.7511 12.8982 3.32546 12.8418 2.91218 12.7598L2.66542 12.7076C1.84639 12.5471 1.2874 12.267 1.10616 11.8923C1.04274 11.7579 1.00887 11.6062 1.00907 11.4526C1.0085 11.3 1.04193 11.1517 1.10682 11.0165C1.28304 10.6627 1.87543 10.3579 2.65023 10.1983C3.15051 10.0911 3.65372 10.02 4.16005 9.98482C5.12121 9.90012 6.0786 9.90012 7.03049 9.98409Z" fill="#153DA2"/>
</svg>
