<svg width="21" height="21" viewBox="0 0 21 21" fill="none" xmlns="http://www.w3.org/2000/svg">
<path fill-rule="evenodd" clip-rule="evenodd" d="M16.0525 5.93915C16.2683 5.65443 16.2435 5.24382 15.9801 4.98038C15.6927 4.693 15.2302 4.68959 14.947 4.97277L5.93494 13.9848L5.89991 7.43906L5.89142 7.33104C5.83738 6.97829 5.5323 6.70513 5.16553 6.70167C4.76207 6.69786 4.43674 7.02183 4.43887 7.42528L4.48268 15.7025C4.47321 15.9026 4.54566 16.1068 4.69964 16.2608C4.76958 16.3308 4.8499 16.3839 4.93548 16.4201C5.02322 16.4576 5.11949 16.4785 5.22036 16.479L13.536 16.5223L13.6439 16.515C13.9956 16.4646 14.263 16.1624 14.2595 15.7956C14.2557 15.3922 13.9255 15.0634 13.5221 15.0613L6.97395 15.0272L15.9877 6.01348L16.0525 5.93915Z" fill="#4BA74F"/>
</svg>
