<svg width="22" height="22" viewBox="0 0 22 22" fill="none" xmlns="http://www.w3.org/2000/svg">
<path d="M11 2.57812V4.29688H9.28125V2.57812H11ZM9.28125 12.6758V15.125H11V12.6758H9.28125ZM14.4375 22V20.2812H12.7188V18.5625H11V22H14.4375ZM17.875 9.23828H12.7188V10.957H17.875V9.23828ZM17.875 12.6758H20.2812V10.957H17.875V12.6758ZM17.875 15.125V16.8438H22V12.6758H20.2812V15.125H17.875ZM12.7188 0H11V2.57812H12.7188V0ZM11 7.73438H12.7188V4.29688H11V6.01562H9.28125V10.957H11V7.73438ZM0 9.23828V12.6758H1.71875V10.957H4.29688V9.23828H0ZM12.7188 12.6758V10.957H11V12.6758H12.7188ZM16.1562 14.3945H17.875V12.6758H16.1562V14.3945ZM20.2812 10.957H22V9.23828H20.2812V10.957ZM14.4375 12.6758H12.7188V15.125H11V16.8438H14.4375V12.6758ZM9.28125 18.5625H11V16.8438H9.28125V18.5625ZM14.4375 16.8438V18.5625H17.875V16.8438H14.4375ZM19.5938 20.2812V18.5625H17.875V20.2812H19.5938ZM22 22V20.2812H19.5938V22H22ZM16.1562 22H17.875V20.2812H16.1562V22ZM7.73438 10.957V9.23828H6.01562V10.957H4.29688V12.6758H9.28125V10.957H7.73438ZM7.73438 7.73438H0V0H7.73438V7.73438ZM6.01562 1.71875H1.71875V6.01562H6.01562V1.71875ZM4.72656 3.00781H3.00781V4.72656H4.72656V3.00781ZM22 0V7.73438H14.2656V0H22ZM20.2812 1.71875H15.9844V6.01562H20.2812V1.71875ZM18.9922 3.00781H17.2734V4.72656H18.9922V3.00781ZM0 14.2656H7.73438V22H0V14.2656ZM1.71875 20.2812H6.01562V15.9844H1.71875V20.2812ZM3.00781 18.9922H4.72656V17.2734H3.00781V18.9922Z" fill="#061C5B"/>
</svg>
