<svg width="21" height="20" viewBox="0 0 21 20" fill="none" xmlns="http://www.w3.org/2000/svg">
<path d="M20.3049 9.06215C20.094 8.62677 19.7425 8.27525 19.3072 8.06443L3.08704 0.215582C2.01853 -0.302087 0.732731 0.144497 0.215061 1.21301C-0.0486648 1.75742 -0.0708345 2.38779 0.154053 2.94937L2.97455 9.99923L0.154053 17.0498C-0.285267 18.1558 0.255202 19.4086 1.36121 19.8478C1.61129 19.9472 1.87778 19.9988 2.14688 20C2.47246 20 2.79383 19.9265 3.08704 19.785L19.3071 11.934C20.3757 11.4165 20.8224 10.1307 20.3049 9.06215ZM2.46289 18.493C2.10666 18.6655 1.67809 18.5165 1.50564 18.1603C1.41776 17.9788 1.41046 17.7687 1.48545 17.5815L4.23142 10.7158H18.5354L2.46289 18.493ZM4.23146 9.28262L1.48549 2.41693C1.3712 2.14325 1.44216 1.8272 1.66247 1.62869C1.87573 1.42089 2.19773 1.37214 2.46289 1.50759L18.5354 9.28262H4.23146Z" fill="#E70000"/>
</svg>
