<svg width="19" height="15" viewBox="0 0 19 15" fill="none" xmlns="http://www.w3.org/2000/svg">
<path d="M18.2301 1.68367C17.588 1.96819 16.8983 2.16043 16.1731 2.24733C16.9213 1.79963 17.4811 1.095 17.748 0.264924C17.045 0.682466 16.2757 0.976371 15.4734 1.13386C14.9338 0.557798 14.2192 0.175974 13.4405 0.0476703C12.6617 -0.0806339 11.8624 0.0517592 11.1665 0.424295C10.4707 0.796831 9.91739 1.38867 9.5924 2.10792C9.26742 2.82717 9.18899 3.63359 9.36928 4.40198C7.94491 4.33046 6.55149 3.96024 5.27946 3.31535C4.00743 2.67046 2.88521 1.76531 1.98564 0.658637C1.67805 1.18923 1.50119 1.8044 1.50119 2.45956C1.50084 3.04936 1.64609 3.63012 1.92403 4.15032C2.20197 4.67052 2.60401 5.11407 3.09449 5.44163C2.52567 5.42353 1.96939 5.26983 1.47197 4.99332V5.03945C1.47191 5.86667 1.75805 6.66842 2.28183 7.30868C2.80562 7.94894 3.53478 8.38826 4.34561 8.55211C3.81793 8.69492 3.26469 8.71595 2.72769 8.61362C2.95646 9.32539 3.40208 9.94781 4.00216 10.3937C4.60224 10.8397 5.32675 11.0868 6.07425 11.1005C4.80532 12.0966 3.2382 12.6369 1.62499 12.6346C1.33923 12.6346 1.05371 12.618 0.769897 12.5846C2.4074 13.6374 4.31357 14.1962 6.26034 14.194C12.8504 14.194 16.453 8.73589 16.453 4.00212C16.453 3.84832 16.4492 3.69299 16.4423 3.5392C17.143 3.03242 17.7479 2.40489 18.2286 1.68598L18.2301 1.68367Z" fill="#061C5B"/>
</svg>
